<?xml version="1.0" encoding="UTF-8" standalone="no"?>
<!DOCTYPE svg PUBLIC "-//W3C//DTD SVG 20010904//EN"
              "http://www.w3.org/TR/2001/REC-SVG-20010904/DTD/svg10.dtd">

<svg xmlns="http://www.w3.org/2000/svg"
     width="2.66667in" height="2.66667in"
     viewBox="0 0 800 800">
  <path id="Sans nom"
        fill="none" stroke="#000" stroke-width="6"
        d="M 216.00,238.00
           C 236.00,235.00 429.00,212.00 429.00,212.00
             429.00,212.00 506.00,318.00 473.00,345.00
             440.00,372.00 280.00,433.00 253.00,439.00
             226.00,445.00 0.00,364.00 123.00,369.00
             246.00,374.00 334.00,338.00 334.00,338.00
             334.00,338.00 250.00,297.00 250.00,297.00
             250.00,297.00 161.00,385.00 113.00,319.00
             65.00,253.00 32.00,133.00 32.00,133.00
             32.00,133.00 94.00,56.00 101.00,56.00
             108.00,56.00 241.00,52.00 241.00,52.00
             241.00,52.00 449.00,56.00 449.00,56.00
             449.00,56.00 513.00,182.00 555.00,142.00
             597.00,102.00 666.00,51.00 666.00,51.00
             666.00,51.00 782.00,155.00 688.00,112.00
             594.00,69.00 634.00,141.00 634.00,141.00
             634.00,141.00 738.00,275.00 738.00,275.00
             738.00,275.00 734.00,499.00 734.00,499.00
             734.00,499.00 774.00,613.00 635.00,604.00
             496.00,595.00 258.00,745.00 258.00,745.00
             258.00,745.00 487.00,474.00 487.00,474.00
             487.00,474.00 590.00,209.00 590.00,209.00
             590.00,209.00 335.00,123.00 335.00,123.00
             335.00,123.00 216.00,237.00 216.00,237.00" />
</svg>
