<?xml version="1.0" encoding="iso-8859-1"?>
<!-- Uploaded to: SVG Repo, www.svgrepo.com, Generator: SVG Repo Mixer Tools -->
<svg fill="#000000" height="800px" width="800px" version="1.1" id="Layer_1" xmlns="http://www.w3.org/2000/svg" xmlns:xlink="http://www.w3.org/1999/xlink" 
	 viewBox="0 0 512 512" xml:space="preserve">
<path d="M256,0C114.632,0,0,114.522,0,256c0,141.497,114.494,256,256,256c141.497,0,256-114.494,256-256
	C512,114.959,397.839,0,256,0z M323.57,46.286c-0.481,48.196-2.342,89.262,31.82,133.961c16.77,21.943,25.633,48.139,25.633,75.753
	c0,69.478-56.845,125.958-126.883,125.01c-69.071-1.008-124.685-58.72-123.132-127.863c0.593-26.386,9.347-51.463,25.312-72.518
	c34.497-45.494,32.586-86.37,32.111-134.342C231.103,32.523,278.977,31.905,323.57,46.286z M256,476.279
	c-121.463,0-220.279-98.816-220.279-220.279c0-84.523,47.608-157.895,117.143-194.708c0.319,38.925-1.084,66.203-25.007,97.754
	c-20.538,27.085-31.798,59.347-32.561,93.298c-2.012,89.67,70.543,164.4,160.729,164.4c88.556,0,160.719-71.873,160.719-160.744
	c0-35.523-11.402-69.219-32.973-97.444c-23.515-30.768-24.932-59.4-24.633-97.262C428.757,98.152,476.279,171.57,476.279,256
	C476.279,377.463,377.463,476.279,256,476.279z"/>
</svg>