<?xml version="1.0" encoding="iso-8859-1"?>
<!-- Uploaded to: SVG Repo, www.svgrepo.com, Generator: SVG Repo Mixer Tools -->
<!DOCTYPE svg PUBLIC "-//W3C//DTD SVG 1.1//EN" "http://www.w3.org/Graphics/SVG/1.1/DTD/svg11.dtd">
<svg fill="#000000" version="1.1" id="Capa_1" xmlns="http://www.w3.org/2000/svg" xmlns:xlink="http://www.w3.org/1999/xlink" 
	 width="800px" height="800px" viewBox="0 0 222.035 222.035"
	 xml:space="preserve">
<g>
	<path d="M221.524,120.445l-8.713-9.085c-0.331-0.352-0.786-0.553-1.271-0.559l-29.188-0.603l0.083-37.983
		c8.062,2.293,16.385-0.313,18.879-1.241c5.935,2.373,10.479,2.412,13.512,0.109c4.374-3.304,3.605-9.992,3.57-10.276
		c-0.077-0.588-0.426-1.103-0.945-1.38c-5.479-2.946-32.634-17.088-37.977-19.872l-0.805-14.458
		c-0.047-0.836-0.661-1.534-1.483-1.685c-0.851-0.15-1.643,0.287-1.986,1.049l-3.724,8.382l-1.135-9.386
		c-0.101-0.807-0.715-1.448-1.513-1.582c-0.798-0.109-1.59,0.29-1.933,1.017l-7.324,15.563c-5.042,3.097-7.843,10.633-9.717,15.675
		l-0.709,1.876c-8.778,22.484-9.216,22.588-16.527,24.326c-19.954,4.731-32.943,1.791-46.694-1.31l-2.264-0.508
		c-9.218-2.069-24.556,0.074-34.814,8.113c-2.19,1.711-4.037,3.655-5.597,5.754c-0.109,0-0.189-0.083-0.299-0.059
		c-0.23,0.042-22.812,4.799-21.589,24.374c1.46,23.507-3.038,32.178-7.069,35.328c-2.985,2.329-6.889,2.666-11.925,1.064
		c-0.647-0.213-1.359-0.024-1.838,0.449c-0.485,0.484-0.647,1.193-0.443,1.844c0.056,0.153,4.678,13.831,19.963,13.831
		c1.895,0,3.958-0.213,6.192-0.686c13.358-2.813,16.577-15.232,12.528-49.095c0.449,1.613,1.022,3.451,1.797,5.922
		c0.783,2.495,1.767,5.615,2.985,9.688l-2.681,24.146c-0.036,0.325,0.012,0.639,0.139,0.934l16.984,38.78
		c0.284,0.639,0.919,1.082,1.634,1.094l9.809,0.178c0.006,0,0.018,0,0.032,0c0.58,0,1.126-0.272,1.469-0.745
		c0.352-0.484,0.443-1.105,0.249-1.655l-11.192-32.532c3.511-2.678,14.2-11.769,19.576-25.896l-1.017,20.782
		c-0.012,0.26,0.03,0.521,0.127,0.769l14.896,37.061c0.271,0.686,0.942,1.135,1.682,1.135h9.079c0.583,0,1.132-0.284,1.472-0.757
		c0.337-0.461,0.434-1.075,0.254-1.631l-11.035-33.455l10.846-22.414c0.039-0.07-0.012-0.142,0.012-0.219
		c10.63,1.1,25.523,0.236,46.518-4.557l15.185,24.004l2.512,38.053c0.065,0.94,0.857,1.685,1.814,1.685h7.991
		c1.005,0,1.821-0.804,1.821-1.809v-60.987c8.423-1.524,15.894-4.599,20.103-6.62l-6.608,27.568
		c-0.13,0.521-0.018,1.069,0.289,1.489l4.723,6.537c0.343,0.484,0.881,0.757,1.466,0.757c0.071,0,0.131,0,0.201-0.012
		c0.645-0.071,1.206-0.485,1.466-1.088l18.53-43.237C222.175,121.739,222.026,120.972,221.524,120.445z M25.479,164.965
		c-11.955,2.53-17.838-3.487-20.363-7.495c4.486,0.674,8.299-0.177,11.394-2.588c6.862-5.355,9.714-18.276,8.461-38.42
		c-0.774-12.505,10.004-17.807,15.537-19.695c-1.103,2.252-1.871,4.667-2.355,7.196c-5.677,5.007-3.183,14.544-3.115,14.703
		C39.937,158.575,33.601,163.251,25.479,164.965z M91.435,162.323c-0.207,0.42-0.237,0.904-0.092,1.359l10.471,31.776H96.47
		l-14.292-35.548l1.38-28.053c0.813,0.84,1.726,1.68,2.881,2.501c3.316,2.37,8.323,4.581,15.738,5.774L91.435,162.323z
		 M178.08,196.168h-4.48l-2.429-36.818c-0.019-0.302-0.118-0.591-0.278-0.845l-15.817-24.926c1.644,0.969,3.34,1.855,5.19,2.494
		c5.757,2.01,11.939,2.229,17.814,1.543V196.168z M201.286,161.265l-2.358-3.257l7.335-30.623c0.172-0.71-0.095-1.442-0.674-1.88
		s-1.365-0.479-1.992-0.124c-0.242,0.13-24.074,13.571-42.155,7.259c-7.519-2.619-13.092-8.364-16.556-17.07
		c-0.373-0.923-1.431-1.378-2.364-1.017c-0.929,0.378-1.39,1.43-1.011,2.371c2.695,6.762,6.655,11.839,11.638,15.367
		c-0.184-0.012-0.372-0.064-0.55-0.006c-38.91,9.02-56.214,4.575-63.865-0.756c-5.27-3.671-5.834-7.696-5.852-7.838
		c-0.012-0.137-0.145-0.219-0.195-0.355c0.104-5.07-0.579-10.532-2.42-16.357c-0.302-0.958-1.33-1.483-2.276-1.185
		c-0.955,0.301-1.489,1.324-1.185,2.276c10.713,33.851-18.728,54.13-19.987,54.987c-0.677,0.455-0.966,1.318-0.7,2.104
		l10.778,31.327l-6.052-0.112l-16.323-37.279l2.669-24.033c0.023-0.242,0-0.491-0.068-0.722c-1.271-4.262-2.287-7.506-3.103-10.089
		c-2.494-7.933-2.943-9.357-2.822-14.969c0.177-8.151,3.499-14.815,9.88-19.81c9.38-7.347,23.368-9.321,31.782-7.427l2.252,0.502
		c14.18,3.209,27.58,6.236,48.333,1.303c9.38-2.223,10.267-3.99,19.067-26.536l0.733-1.924c1.756-4.708,4.403-11.834,8.57-14.056
		c0.349-0.18,0.627-0.476,0.786-0.828l4.877-10.355l1.158,9.652c0.101,0.812,0.727,1.46,1.531,1.581
		c0.81,0.109,1.602-0.316,1.921-1.061l3.352-7.527l0.449,7.982c0.035,0.641,0.401,1.218,0.969,1.513
		c0,0,30.092,15.664,37.953,19.846c0.012,1.513-0.225,4.545-2.187,6.041c-2.016,1.531-5.681,1.241-10.604-0.839
		c-0.449-0.189-0.963-0.189-1.406,0c-0.147,0.065-15.167,6.245-24.193-2.609c-0.715-0.698-1.867-0.688-2.571,0.023
		c-0.697,0.715-0.686,1.865,0.03,2.568c1.555,1.531,3.257,2.583,4.994,3.455c-0.006,0.064-0.07,0.109-0.07,0.18l-0.101,41.009
		c0,0.99,0.786,1.794,1.773,1.812l30.221,0.626l7.365,7.679L201.286,161.265z M181.964,53.544c0-1.566,1.271-2.837,2.837-2.837
		c1.572,0,2.843,1.271,2.843,2.837c0,1.569-1.271,2.84-2.843,2.84C183.234,56.384,181.964,55.119,181.964,53.544z"/>
</g>
</svg>