<?xml version="1.0" encoding="iso-8859-1"?>
<!-- Uploaded to: SVG Repo, www.svgrepo.com, Generator: SVG Repo Mixer Tools -->
<svg fill="#000000" height="800px" width="800px" version="1.1" id="Layer_1" xmlns="http://www.w3.org/2000/svg" xmlns:xlink="http://www.w3.org/1999/xlink" 
	 viewBox="0 0 512.001 512.001" xml:space="preserve">
<g>
	<g>
		<circle cx="442.959" cy="273.407" r="9.309"/>
	</g>
</g>
<g>
	<g>
		<path d="M509.733,269.105c-1.634-1.89-29.234-32.968-89.753-52.241c0.678-6.948-0.093-16.366-5.469-27.101
			c-16.344-32.631-65.287-58.775-145.46-77.705c-3.327-0.789-6.733-1.188-10.12-1.188c-7.344,0-14.473,1.886-20.623,5.459
			c-9.908,5.767-12.133,12.885-12.254,17.841c-0.225,9.192,6.426,18.054,20.339,27.092c13.552,8.797,18.512,13.552,20.323,15.782
			c-1.356,0.962-8.229,5.073-10.056,6.273c-11.312,7.431-13.196,16.639-12.23,24.234c-21.503,3.34-43.614,8.1-66.226,14.3
			c-21.875-8.706-42.193-20.03-61.87-30.996c-21.089-11.751-42.895-23.903-67.079-33.217c-4.015-1.545-8.179-2.328-12.379-2.328
			C16.543,155.308,0,173.335,0,195.493v0.714c0,20.353,14.007,37.498,32.577,39.881l3.315,0.426
			c9.31,1.195,16.332,10.402,16.332,21.416v3.059c0,11.014-7.021,20.22-16.334,21.415l-3.309,0.425
			C14.007,285.214,0,302.359,0,322.711v0.716c0,22.158,16.543,40.184,36.875,40.184c4.2,0,8.364-0.784,12.38-2.33
			c24.314-9.363,46.177-22.409,67.32-35.028c19.519-11.648,39.672-23.674,61.294-32.387c28.972,10.241,56.475,18.598,82.418,25.056
			c2.505,7.491,2.395,16.356-0.593,21.952c-2.238,4.191-5.793,6.363-11.181,6.835c-19.292,1.683-24.699,13.178-26.208,19.896
			c-1.807,8.101,0.042,16.113,5.207,22.556c5.504,6.869,14.244,10.97,23.379,10.971c0.001,0,0.002,0,0.002,0
			c1.016,0,2.047-0.05,3.065-0.15c75.548-7.425,114.668-48.927,127.587-65.734c20.965-0.261,38.69-2.581,53.645-6.145
			c0.52,2.264,1.007,6.577-1.086,11.253c-3.349,7.482-12.381,13.751-26.119,18.131c-4.899,1.562-7.603,6.798-6.042,11.697
			c1.261,3.959,4.922,6.484,8.867,6.484c0.937,0,1.89-0.143,2.83-0.442c19.201-6.121,31.803-15.63,37.457-28.263
			c4.473-9.992,3.29-19.066,1.96-24.105c45.12-16.01,57.494-43.369,58.192-44.992C512.652,275.591,512.064,271.801,509.733,269.105z
			 M266.883,198.875c1.498-0.984,3.071-1.926,4.592-2.836c6.487-3.881,14.56-8.71,14.732-18.027
			c0.172-9.441-7.871-18.213-29.675-32.366c-9.698-6.301-11.507-10.034-11.811-10.896c0.256-0.35,1.017-1.206,2.945-2.327
			c4.888-2.84,11.13-3.662,17.097-2.247c92.872,21.929,123.64,49.042,133.1,67.926c2.645,5.281,3.561,9.886,3.696,13.561
			c-24.052-5.973-52.436-9.914-85.488-9.914c-17.21,0-34.997,1.11-53.262,3.28C262.576,202.411,263.875,200.852,266.883,198.875z
			 M252.137,382.453c-0.414,0.041-0.834,0.062-1.245,0.062c-0.001,0-0.001,0-0.001,0c-3.539,0-6.848-1.494-8.853-3.997
			c-1.605-2.003-2.131-4.311-1.565-6.844c0.314-1.396,1.047-4.664,9.66-5.416c11.577-1.014,20.806-6.913,25.985-16.614
			c4.3-8.052,5.239-17.402,4.172-26.05c27.691,6.022,53.451,9.723,77.164,11.086C340.744,351.888,307.441,377.017,252.137,382.453z
			 M472.293,293.801c-10.128,6.755-25.924,14.345-49.361,18.858c-10.32-4.583-16.929-10.977-19.644-19.025
			c-5.588-16.565,5.746-36.06,5.883-36.292c2.625-4.407,1.19-10.11-3.212-12.748c-4.41-2.644-10.128-1.211-12.771,3.198
			c-0.652,1.087-15.858,26.895-7.587,51.663c2.086,6.246,5.416,11.799,9.948,16.639c-5.667,0.369-11.65,0.569-17.969,0.569
			c-53.433-0.001-119.631-13.964-196.753-41.501c-2.1-0.748-4.396-0.721-6.476,0.079c-24.315,9.363-46.178,22.409-67.321,35.028
			c-20.471,12.217-41.638,24.848-64.469,33.639c-1.871,0.721-3.785,1.087-5.689,1.087c-10.067,0-18.257-9.674-18.257-21.566v-0.716
			c0-11.014,7.021-20.219,16.332-21.415l3.313-0.425c18.574-2.384,32.579-19.529,32.579-39.882v-3.059
			c0-20.352-14.005-37.498-32.582-39.882l-3.309-0.425c-9.31-1.196-16.332-10.403-16.332-21.417v-0.714
			c0-11.891,8.191-21.566,18.259-21.566c1.903,0,3.817,0.365,5.688,1.086c22.958,8.841,44.183,20.668,64.707,32.106
			c21.09,11.753,42.896,23.904,67.081,33.218c1.868,0.72,3.923,0.817,5.848,0.278c48.116-13.436,93.828-20.248,135.869-20.248
			c65.272,0,110.629,16.577,137.185,30.482c19.075,9.989,31.454,20.068,37.655,25.755
			C487.725,280.919,481.92,287.38,472.293,293.801z"/>
	</g>
</g>
</svg>