<?xml version="1.0" encoding="iso-8859-1"?>
<!-- Uploaded to: SVG Repo, www.svgrepo.com, Generator: SVG Repo Mixer Tools -->
<svg fill="#000000" height="800px" width="800px" version="1.1" id="Layer_1" xmlns="http://www.w3.org/2000/svg" xmlns:xlink="http://www.w3.org/1999/xlink" 
	 viewBox="0 0 512 512" xml:space="preserve">
<g>
	<g>
		<path d="M447.407,231.645c-10.009-5.777-17.116-15.735-19.498-27.315c-4.045-19.722-10.436-38.955-18.996-57.165
			c-20.39-43.359-52.471-80.077-92.776-106.183C274.747,14.172,226.689,0,177.157,0c-34.722,0-55.802,7.008-66.338,22.052
			c-14.06,20.075-5.466,48.562,5.406,78.446c2.342,6.435,4.857,13.048,7.52,20.05c9.588,25.209,20.214,53.156,26.654,83.122
			l-58.17-30.252c-11.946-6.215-27.96-4.146-36.46,4.71c-5.807,6.05-6.871,14.243-2.779,21.378
			C63.517,217.885,68.855,236.892,68.855,256c0,19.108-5.338,38.114-15.862,56.488c-4.094,7.141-3.03,15.333,2.777,21.383
			c5.196,5.412,13.199,8.291,21.364,8.289c5.192,0,10.451-1.164,15.094-3.579l58.174-30.253
			c-6.432,29.934-17.048,57.855-26.624,83.042c-2.717,7.145-5.287,13.903-7.668,20.46c-0.059,0.142-0.114,0.285-0.166,0.43
			c-10.273,28.356-19.131,57.712-5.111,77.705C121.374,504.999,142.45,512,177.158,512c49.28,0,97.134-14.039,138.386-40.6
			c40.163-25.86,72.24-62.267,92.759-105.286c0.026-0.054,0.049-0.11,0.076-0.164c0.021-0.046,0.043-0.091,0.063-0.137
			c8.81-18.532,15.363-38.09,19.468-58.137c2.382-11.586,9.49-21.544,19.509-27.327c8.8-5.092,14.053-14.195,14.053-24.348
			C461.473,245.848,456.217,236.744,447.407,231.645z M82.401,192.312l72.387,37.645c0.601,5.199,1.029,10.341,1.281,15.395h-66.39
			c-1.561-18.202-7.109-36.151-16.588-53.528C75.441,191.026,79.256,190.676,82.401,192.312z M82.399,319.689
			c-3.144,1.637-6.957,1.286-9.309,0.487c9.479-17.374,15.027-35.325,16.588-53.528h66.39c-0.251,5.054-0.68,10.195-1.281,15.395
			L82.399,319.689z M177.157,490.704c-26.407,0-42.856-4.362-48.891-12.966c-6.493-9.26-3.226-26.31,4.499-49.114
			c40.402,9.95,75.059,14.835,106.035,14.835c13.634,0,26.559-0.946,38.945-2.82c25.367-3.839,48.572-11.628,69.915-23.53
			C303.918,463.161,242.322,490.704,177.157,490.704z M436.762,261.909c-15.276,8.817-26.106,23.935-29.714,41.485
			c-3.685,17.999-9.535,35.56-17.363,52.234c-58.613,65.861-131.578,81.482-249.621,52.857c1.172-3.11,2.377-6.282,3.617-9.546
			c12.142-31.932,25.896-68.117,31.468-108.266c0.01-0.057,0.022-0.113,0.032-0.17c0.001-0.011,0.004-0.02,0.005-0.031
			c0.005-0.034,0.014-0.067,0.019-0.102c1.614-11.732,2.433-23.296,2.433-34.369s-0.819-22.637-2.433-34.369
			c-0.004-0.031-0.013-0.059-0.017-0.089c-0.001-0.005-0.002-0.011-0.003-0.016c-0.008-0.059-0.023-0.115-0.033-0.173
			c-5.577-40.194-19.349-76.411-31.503-108.374c-1.128-2.963-2.221-5.845-3.291-8.678c44.653-10.834,81.026-14.998,113.679-13.04
			c5.883,0.356,10.914-4.121,11.267-9.992c0.352-5.87-4.122-10.914-9.991-11.267c-35.385-2.121-74.446,2.383-122.275,14.152
			c-7.917-23.22-11.308-40.56-4.776-49.887c6.03-8.608,22.48-12.972,48.896-12.972c66.186,0,128.559,28.312,172.383,75.565
			c-7.767-4.404-15.787-8.291-24.11-11.644c-5.453-2.197-11.658,0.444-13.855,5.899c-2.197,5.455,0.444,11.659,5.899,13.855
			c27.212,10.96,51.035,28.199,72.795,52.645c7.52,16.275,13.173,33.417,16.779,50.997c3.606,17.543,14.437,32.66,29.702,41.47
			c3.09,1.788,3.423,4.733,3.423,5.916S439.84,260.128,436.762,261.909z"/>
	</g>
</g>
<g>
	<g>
		<path d="M286.173,286.671l-26.78,21.185c-7.028,5.56-14.907,4.393-21.083-3.124c-10.412-12.654-15.69-29.051-15.69-48.733
			c0-19.682,5.279-36.079,15.695-48.738c6.171-7.512,14.049-8.678,21.078-3.119l26.78,21.185c4.613,3.649,11.309,2.867,14.957-1.745
			s2.868-11.308-1.745-14.957l-26.779-21.185c-16.261-12.864-37.129-10.273-50.741,6.296
			c-13.438,16.333-20.541,37.865-20.541,62.263c0,24.399,7.103,45.93,20.537,62.258c7.833,9.534,18.064,14.442,28.439,14.442
			c7.66,0,15.399-2.676,22.306-8.14l26.78-21.185c4.613-3.649,5.393-10.345,1.745-14.957
			C297.481,283.805,290.787,283.023,286.173,286.671z"/>
	</g>
</g>
<g>
	<g>
		<path d="M291.395,74.841c-1.033-0.221-2.067-0.437-3.105-0.643c-5.765-1.152-11.375,2.589-12.529,8.354
			c-1.152,5.767,2.589,11.376,8.356,12.529c0.937,0.187,1.873,0.381,2.807,0.581c0.754,0.162,1.506,0.24,2.246,0.24
			c4.912,0,9.328-3.419,10.401-8.415C300.805,81.737,297.145,76.075,291.395,74.841z"/>
	</g>
</g>
<g>
	<g>
		<path d="M364.602,219.18c-20.303,0-36.82,16.517-36.82,36.82c0,20.303,16.517,36.82,36.82,36.82
			c20.303,0,36.82-16.517,36.82-36.82C401.422,235.697,384.905,219.18,364.602,219.18z M364.602,271.523
			c-8.56,0-15.524-6.964-15.524-15.524c0-8.56,6.964-15.524,15.524-15.524c8.56,0,15.524,6.964,15.524,15.524
			C380.126,264.559,373.162,271.523,364.602,271.523z"/>
	</g>
</g>
</svg>