<?xml version="1.0" encoding="iso-8859-1"?>
<!-- Uploaded to: SVG Repo, www.svgrepo.com, Generator: SVG Repo Mixer Tools -->
<svg fill="#000000" height="800px" width="800px" version="1.1" id="Layer_1" xmlns="http://www.w3.org/2000/svg" xmlns:xlink="http://www.w3.org/1999/xlink" 
	 viewBox="0 0 485.487 485.487" xml:space="preserve">
<g>
	<g>
		<g>
			<path d="M150.419,148.745c-46.893,0-85.043,38.15-85.043,85.043c0,46.897,38.15,85.051,85.043,85.051
				c46.897,0,85.05-38.154,85.05-85.051C235.469,186.895,197.316,148.745,150.419,148.745z M150.419,298.839
				c-35.865,0-65.043-29.182-65.043-65.051c0-35.865,29.178-65.043,65.043-65.043c35.869,0,65.05,29.178,65.05,65.043
				C215.469,269.658,186.288,298.839,150.419,298.839z"/>
			<path d="M117.156,222.719c-2.64,0-5.21,1.07-7.08,2.93c-1.86,1.86-2.92,4.44-2.92,7.07s1.06,5.21,2.92,7.07
				c1.87,1.86,4.44,2.93,7.08,2.93c2.63,0,5.2-1.07,7.07-2.93c1.86-1.86,2.93-4.44,2.93-7.07s-1.07-5.21-2.93-7.07
				C122.355,223.789,119.786,222.719,117.156,222.719z"/>
			<path d="M478.533,100.496c-4.142-1.324-8.667,0.18-11.19,3.723L386.12,218.228c-3.192-26.065-11.41-50.564-23.626-72.467
				l61.397-84.279c2.216-3.041,2.537-7.069,0.831-10.422c-1.706-3.354-5.15-5.466-8.913-5.466H194.762
				c-0.065,0-0.129,0.008-0.194,0.01c-0.254-0.001-0.506-0.01-0.76-0.01C86.942,45.594,0,134.034,0,242.743
				C0,347.66,80.985,433.687,182.703,439.562c0.804,0.208,1.644,0.331,2.513,0.331h221.045c3.736,0,7.161-2.083,8.88-5.401
				c1.718-3.318,1.443-7.317-0.712-10.369l-55.403-78.427c12.81-21.194,21.784-45.028,25.949-70.497l82.367,115.622
				c1.912,2.684,4.973,4.198,8.146,4.198c1.015,0,2.041-0.155,3.045-0.476c4.143-1.325,6.954-5.175,6.954-9.525V110.021
				C485.487,105.672,482.675,101.821,478.533,100.496z M396.151,65.594l-45.147,61.972c-18.621-26.225-43.415-47.622-72.202-61.972
				H396.151z M386.954,419.893H278.803c26.774-13.347,50.094-32.79,68.207-56.543L386.954,419.893z M367.568,246.704
				c-0.029,0.356-0.034,0.713-0.025,1.069c-2.623,95.363-79.547,172.119-173.735,172.119c-51.682,0.001-98.16-23.118-130.024-59.732
				h60.321c5.523,0,10-4.477,10-10s-4.477-10-10-10H48.964c-0.081,0-0.16,0.01-0.241,0.012C30.581,312.201,20,278.71,20,242.743
				c0-97.68,77.97-177.149,173.808-177.149c95.839,0,173.809,79.469,173.809,177.149
				C367.617,244.067,367.596,245.387,367.568,246.704z M465.487,353.746l-75.676-106.23l75.676-106.224V353.746z"/>
		</g>
	</g>
</g>
</svg>