<?xml version="1.0" encoding="iso-8859-1"?>
<!-- Uploaded to: SVG Repo, www.svgrepo.com, Generator: SVG Repo Mixer Tools -->
<svg fill="#000000" height="800px" width="800px" version="1.1" id="Layer_1" xmlns="http://www.w3.org/2000/svg" xmlns:xlink="http://www.w3.org/1999/xlink" 
	 viewBox="0 0 512.003 512.003" xml:space="preserve">
<g>
	<g>
		<circle cx="406.841" cy="270.355" r="10.259"/>
	</g>
</g>
<g>
	<g>
		<path d="M499.873,279.811c0,0-4.779-5.521-6.411-7.458c-23.776-28.223-45.254-60.502-63.908-96.057
			c-13.791-26.289-34.023-49.108-58.508-65.99c-3.819-2.633-8.083-5.355-12.762-8.053c-4.688-25.575-18.047-48.514-38.127-65.142
			c-21.649-17.928-50.269-27.802-80.584-27.802c-15.749,0-31.846,2.593-47.84,7.708c-3.166,1.013-5.645,3.497-6.653,6.665
			c-1.007,3.169-0.415,6.627,1.585,9.282l37.792,50.137c-2.701,0.633-5.401,1.304-8.103,2.053
			c-4.204,1.216-8.352,2.608-12.456,4.131L161.01,34.484c-3.287-4.2-9.246-5.181-13.708-2.254
			c-3.459,2.27-84.937,56.145-105.151,104.658c-1.547,3.711-0.782,7.982,1.952,10.927l49.68,53.502
			c-1.967,5.64-3.65,11.377-5.049,17.194l-61.101-38.882c-2.602-1.658-5.812-2.054-8.742-1.081
			c-2.928,0.973-5.263,3.212-6.358,6.098c-1.221,3.218-29.51,79.478,3.151,139.355c1.856,3.402,5.371,5.349,9.013,5.348
			c1.52,0,3.062-0.339,4.514-1.05l58.443-28.69c1.471,6.975,3.347,13.832,5.612,20.549L44.104,373.1
			c-2.735,2.946-3.498,7.216-1.952,10.927c20.214,48.513,101.691,102.389,105.151,104.657c1.73,1.135,3.684,1.683,5.622,1.683
			c3.059,0,6.073-1.363,8.086-3.936l41.671-53.246c6.758,2.529,13.672,4.656,20.715,6.368l-32.706,46.779
			c-2.138,3.057-2.447,7.033-0.808,10.385c1.638,3.351,4.967,5.549,8.691,5.74c3.064,0.158,6.111,0.236,9.151,0.236
			c40.098,0,78.081-13.625,110.35-39.689c21.617-17.46,34.37-35.338,38.439-41.507c4.033-2.258,7.996-4.669,11.871-7.243
			c13.532-8.984,28.415-17.298,45.502-25.417l70.798-33.633c16.594-7.871,27.318-24.823,27.318-43.19v-0.385
			C512.002,299.875,507.694,288.579,499.873,279.811z M84.449,278.322l-54.994,26.997c-15.435-36.943-7.117-80.415-1.507-101.174
			l56.931,36.229c-0.741,6.494-1.145,13.061-1.191,19.685C83.643,266.197,83.9,272.29,84.449,278.322z M212.215,32.772
			c9.205-1.957,18.361-2.944,27.357-2.944c44.602,0,80.729,24.078,94.306,60.632c-18.295-7.242-40.358-12.561-65.729-12.561
			c-6.939,0-13.945,0.427-20.988,1.235L212.215,32.772z M63.864,138.94c17.67-33.331,67.603-70.604,86.93-84.219l33.713,43.078
			c-24.34,12.406-46,30.227-62.789,52.038c-7.475,9.71-13.886,19.993-19.206,30.724L63.864,138.94z M150.795,466.193
			c-19.327-13.615-69.26-50.888-86.93-84.219l37.956-40.876c8.747,18.093,20.53,34.805,35.113,49.493
			c13.814,13.911,29.459,25.323,46.392,34.034L150.795,466.193z M218.908,481.78l26.748-38.258
			c7.054,0.814,14.197,1.239,21.408,1.239c16.339,0,32.429-2.166,47.936-6.353C294.856,457.241,262.767,478.631,218.908,481.78z
			 M475.886,336.666c0,0-77.281,36.773-80.423,38.354c-20.445-4.886-34.434-19.498-41.571-43.53
			c-5.985-20.149-4.805-39.511-4.779-39.906c0.391-5.648-3.865-10.546-9.514-10.944c-5.663-0.413-10.557,3.861-10.954,9.513
			c-0.065,0.923-1.512,22.859,5.404,46.587c6.975,23.928,19.905,41.221,37.899,51.091c-5.141,3.041-10.112,6.14-14.914,9.328
			c-26.684,17.719-57.795,27.084-89.969,27.084c-43.719,0-84.762-17.085-115.571-48.112c-30.803-31.02-47.597-72.192-47.29-115.927
			c0.504-71.535,48.966-135.413,117.741-155.308c15.512-4.299,31.057-6.479,46.203-6.479c40.92,0,72.209,15.652,91.251,28.781
			c21.756,15.001,39.732,35.276,51.986,58.631c19.617,37.391,42.288,71.337,67.441,100.992c1.355,1.599,5.677,6.581,5.708,6.616
			c4.482,5.009,6.949,11.469,6.949,18.191v0.383h0.001C491.483,322.494,485.364,332.17,475.886,336.666z"/>
	</g>
</g>
<g>
	<g>
		<path d="M267.069,383.205c-32.716,0-63.417-12.782-86.449-35.99c-18.57-18.711-30.362-42.25-34.1-68.071
			c-0.812-5.607-6.027-9.494-11.622-8.683c-5.608,0.812-9.495,6.014-8.683,11.622c4.373,30.208,18.151,57.727,39.843,79.584
			c26.914,27.12,62.786,42.056,101.013,42.056c5.666,0,10.259-4.594,10.259-10.259C277.33,387.799,272.736,383.205,267.069,383.205z
			"/>
	</g>
</g>
</svg>